<svg height="297.96356" viewBox="0 0 181.89697 297.96357" width="181.89697" xmlns="http://www.w3.org/2000/svg" xmlns:xlink="http://www.w3.org/1999/xlink"><filter id="a" color-interpolation-filters="sRGB"><feFlood flood-opacity=".5" result="flood"/><feComposite in="flood" in2="SourceGraphic" operator="in" result="composite1"/><feGaussianBlur result="blur" stdDeviation="5"/><feOffset dx="5" dy="5" result="offset"/><feComposite in="SourceGraphic" in2="offset" operator="over" result="composite2"/></filter><linearGradient id="b"><stop offset="0" stop-color="#fff"/><stop offset="1" stop-color="#fff" stop-opacity="0"/></linearGradient><linearGradient id="c" xlink:href="#b"/><linearGradient id="d" gradientUnits="userSpaceOnUse" x1="-83.570999" x2="-80.357002" y1="402.35999" y2="470.92999"><stop offset="0" stop-color="#fff"/><stop offset=".19388" stop-color="#e6e6e6"/><stop offset="1" stop-color="#f6f6f6"/></linearGradient><radialGradient id="e" cx="-104.13" cy="413.35999" gradientTransform="matrix(.89161 .41704 -.74621 1.5953 297.37 -203.48)" gradientUnits="userSpaceOnUse" r="5.3571" xlink:href="#c"/><linearGradient id="f" gradientUnits="userSpaceOnUse" x1="-107.32" x2="-82.320999" y1="387.81" y2="388.34"><stop offset="0" stop-color="#7c7c7c" stop-opacity=".52727"/><stop offset="1" stop-color="#fff"/></linearGradient><linearGradient id="g" gradientTransform="matrix(1 0 0 .99313 -123.07 -6.985)" gradientUnits="userSpaceOnUse" x1="3.9286" x2="24.107" xlink:href="#h" y1="472.98999" y2="472.81"/><linearGradient id="h"><stop offset="0" stop-color="#7c7c7c" stop-opacity=".52727"/><stop offset="1" stop-color="#ffd900" stop-opacity=".72892"/></linearGradient><linearGradient id="i" gradientUnits="userSpaceOnUse" x1="-89.23" x2="-89.050999" y1="427.485" y2="490.52501"><stop offset="0" stop-color="#7c7c7c" stop-opacity=".52727"/><stop offset=".22645" stop-color="#fff" stop-opacity=".58824"/><stop offset=".34033" stop-color="#ffd900" stop-opacity=".67843"/><stop offset=".89224" stop-color="#ffd900" stop-opacity=".39216"/><stop offset="1" stop-color="#4e4e4e" stop-opacity=".57576"/></linearGradient><radialGradient id="j" cx="26.070999" cy="451.29001" gradientTransform="matrix(1 0 0 .74522 0 114.98)" gradientUnits="userSpaceOnUse" r="16.820999" xlink:href="#c"/><radialGradient id="k" cx="26.070999" cy="451.29001" gradientTransform="matrix(1 0 0 .74522 0 114.98)" gradientUnits="userSpaceOnUse" r="16.820999" xlink:href="#b"/><linearGradient id="l" gradientUnits="userSpaceOnUse" x1="161.905" x2="346.19053258" y1="622.6590742" y2="622.6590742"><stop offset="0" stop-color="#808080" stop-opacity="0"/><stop offset=".5" stop-color="#7f7f7f"/><stop offset="1" stop-color="#808080" stop-opacity="0"/></linearGradient><linearGradient id="m" gradientUnits="userSpaceOnUse" x1="57.91999" x2="58.28001" y1="602.69808" y2="660.91811"><stop offset="0" stop-color="#000058"/><stop offset=".10416" stop-color="#acafff"/><stop offset=".17666" stop-color="#00f"/><stop offset=".39769" stop-color="#000051"/><stop offset=".42968" stop-color="#7e7eff"/><stop offset=".49273" stop-color="#3433ff"/><stop offset=".86105" stop-color="#00f"/><stop offset=".96398" stop-color="#000047"/><stop offset="1" stop-color="#00f"/></linearGradient><linearGradient id="n" gradientUnits="userSpaceOnUse" x1="-52.10001" x2="-71.54001" y1="505.83398" y2="564.42401"><stop offset="0" stop-color="#00f"/><stop offset=".17238" stop-color="#00f"/><stop offset=".61475" stop-color="#6e90ff"/><stop offset="1" stop-color="#00f"/></linearGradient><radialGradient id="o" cx="296.85999" cy="518.88" gradientUnits="userSpaceOnUse" r="4.9245" xlink:href="#c"/><linearGradient id="p" gradientUnits="userSpaceOnUse" x1="-19.88" x2="-15.92" y1="572.27049" y2="574.95048"><stop offset="0" stop-color="#ffd80e"/><stop offset=".5" stop-color="#ffd810"/><stop offset="1" stop-color="#d5b100"/></linearGradient><linearGradient id="q" gradientUnits="userSpaceOnUse" x1="-36.064999" x2="-14.712" y1="586.75" y2="586.75"><stop offset="0" stop-color="#cc8600"/><stop offset=".5" stop-color="#ffa600"/><stop offset="1" stop-color="#ffa600"/></linearGradient><linearGradient id="r" gradientUnits="userSpaceOnUse" x1="-27.96001" x2="-27.99001" y1="595.55052" y2="575.55052"><stop offset="0" stop-color="#ffd600"/><stop offset=".5" stop-color="#ffd810"/><stop offset="1" stop-color="#ffea83"/></linearGradient><linearGradient id="s" gradientUnits="userSpaceOnUse" x1="-115.2129" x2="-88.784001" xlink:href="#h" y1="491.325" y2="491.50499"/><g transform="translate(-163.10152 -350.15872)"><path d="m165.13 622.66h177.84" fill="none" stroke="url(#l)" stroke-linecap="round" stroke-linejoin="bevel" stroke-width="4"/><g filter="url(#a)" transform="translate(219.41 -54.356)"><path id="t" d="m37.616001 599.53998h39.536999v78.108002h-39.536999z" fill="url(#m)" stroke="#00007f" stroke-width="1.5"/><use height="1052.3622" stroke-width="1.5" transform="translate(-46.89 -.17857)" width="744.09448" xlink:href="#t"/><g transform="translate(-46.429 -168.66)"><path d="m48.746 725.89-2.8708 20.186-.15967 9.4057h-8.5v13.193h39.39v28.938h7.5135v-28.938h39.534v-13.193h-9.5l-.12938-8.7948-3.6434-20.799h-18.946v29.594l-23 .17857v-29.844z" fill="#00f" stroke="#00007f" stroke-width="1.5"/><path id="u" d="m46.214 756.25h5.8084l-.25254-30.172h-3.0305l-2.7111 19.59z" fill="#00007f"/><use height="1052.3622" transform="matrix(-1 0 0 1 159.84 -.089286)" width="744.09448" xlink:href="#u"/><g fill="#00007f"><path d="m63.660999 726.14001h4.9107v30.268h-4.9107z"/><path d="m92.009003 725.90997h4.9107v30.268h-4.9107z"/></g></g><g id="v" transform="translate(48.992 10.513)"><path d="m-52.5 502.88c-3.2556.057-8.3056 1.3824-12.156 8.0938-9.7123 16.927-12.585 18.184-14.594 29.25-2.0898 11.515-5.2119 21.597-1.5 25.5 6.8073 7.158 18.58 5.9362 19.219-.96875 2.3267-25.14 7.9578-33.132 9.5625-40.656.276-1.2941.45819-2.2988.6875-3.4375l2.5938.375c.76351.69508 1.6543 1.2026 2.6875 1.375 3.5684.5954 7.151-2.6315 8-7.1875.84896-4.556-1.3379-8.7171-4.9062-9.3125-1.222-.2039-2.4477.035-3.5625.625-.83672-.15502-1.7169-.3302-2.5625-.5.11719-2.4525-.1875-2.75-.1875-2.75s-1.3279-.44047-3.2812-.40625z" fill="url(#n)" stroke="#000080" stroke-width="1.5"/><path d="m301.78308 518.87537a4.9244938 4.9244938 0 0 1 -4.92403 4.92449 4.9244938 4.9244938 0 0 1 -4.92496-4.92355 4.9244938 4.9244938 0 0 1 4.92307-4.92544 4.9244938 4.9244938 0 0 1 4.92591 4.92261l-4.92449.002z" fill="url(#o)" transform="matrix(.98788 .28325 -.78051 1.6893 52.477 -448.84)"/><ellipse cx="-71.25" cy="561.10999" fill="#000050" rx="1.9643" ry="1.6071" transform="matrix(3.8247 1.0248 -.80521 3.0051 652.69 -1050.7)"/><path d="m-82.23 559.68c1.3981-6.284 9.883-6.6829 15.531-3.7101 6.1171 3.2198 5.0968 7.4257 5.0968 7.4257" fill="none" stroke="#000080" stroke-width="1.1"/><path d="m-51.833 519.89 2.1466-13.195 3.4724.69448-2.2728 12.943z" fill="#0000b8"/></g><use height="1052.3622" transform="matrix(-1 0 0 1 68.353 .50508)" width="744.09448" xlink:href="#v"/><g id="w" transform="translate(-1.2627 -1.8619)"><path d="m-29.055 571.08c-2.5 16.429-1.5963 10.094-1.5963 10.094 4.6796.8212 10.863 1.3157 16.201 2.9419.5356-3.8682 1.0254-7.6951 1.2379-9.56-1.0709-2.6277-4.0472-4.5851-6.9126-4.9801-4.3634-.60161-7.1941.0542-8.9304 1.5044z" fill="url(#p)" stroke="#ffa000"/><path d="m-19.263 595.78c.33923-.26301.75943-.41568 1.0625-.71875.91946-.91946 1.6733-2.003 2.1875-3.2188.51422-1.2157.78125-2.5657.78125-3.9688s-.26703-2.753-.78125-3.9688c-.51422-1.2157-1.268-2.2993-2.1875-3.2188-.91946-.91946-2.003-1.6733-3.2188-2.1875-1.2157-.51422-2.5657-.78125-3.9688-.78125s-2.7218.26703-3.9375.78125-2.3305 1.268-3.25 2.1875c-.91946.91946-1.642 2.003-2.1562 3.2188-.51422 1.2157-.8125 2.5657-.8125 3.9688s.29828 2.753.8125 3.9688c.36467.86217.9548 1.5601 1.5312 2.2812 1.3384-1.6525 3.2412-2.6847 7-2.4062 3.3147.24554 5.6458 1.8731 6.9375 4.0625z" fill="url(#q)" stroke="#ffa000" stroke-width="1.0403"/><path d="m-25.294 572.97c-7.4953 0-13.562 6.4804-13.562 14.469-.11667 2.919-.35679 5.7264-.375 8.375 0 3.5837 1.2199 6.8472 3.25 9.375.007-3.2582.16794-6.1939.6875-7.4062.61332-1.4311 1.2678-2.6364 2.0938-3.6562-.57645-.72114-1.1666-1.4191-1.5312-2.2812-.51422-1.2157-.8125-2.5657-.8125-3.9688s.29828-2.753.8125-3.9688c.51422-1.2157 1.2368-2.2993 2.1562-3.2188.91946-.91946 2.0343-1.6733 3.25-2.1875 1.2157-.51422 2.5344-.78125 3.9375-.78125s2.753.26703 3.9688.78125c1.2157.51422 2.2993 1.268 3.2188 2.1875.91946.91946 1.6733 2.003 2.1875 3.2188.51422 1.2157.78125 2.5657.78125 3.9688s-.26703 2.753-.78125 3.9688c-.51422 1.2157-1.268 2.2993-2.1875 3.2188-.30307.30307-.72327.45574-1.0625.71875.58714.9952 1.0134 2.0781 1.125 3.25.14864 1.5608-.0851 5.1208-.40625 9.0938 3.8786-2.5467 6.4688-7.0992 6.4688-12.312.31566-3.0456.32763-5.2341.34375-8.375 0-7.9884-6.0672-14.469-13.562-14.469z" fill="url(#r)" stroke="#ffa000" stroke-linejoin="bevel" stroke-width="1.04"/><path d="m-34.937 597.43c-5.3572-4.1072-3.5268-13.304-3.5268-13.304" fill="none" stroke="#ffa000"/><path d="m-17.62 599.9c5.989-3.1145 5.8465-12.742 5.8465-12.742" fill="none" stroke="#ffa000"/><path d="m-33.082 594.07-.23722 8.3491-2.7423 2.7753.55104-8.1832z" fill="#ffa600" stroke="#ffa000" stroke-linecap="round" stroke-linejoin="bevel"/><path d="m-19.357 595.58-.64666 9.4855 1.5427 2.9647.96419-8.1832z" fill="#ffa600" stroke="#ffa000" stroke-linecap="round" stroke-linejoin="bevel"/></g><g transform="translate(117.86 108.48)"><path d="m-94.423 373.36v27.469h-15.527c-3.7593 0-6.2894 3.0586-6.8125 6.7812l-9.8438 70.094c37.318.0765 47.289.30656 86.406-.0312l-10.344-70.062c-.54965-3.7189-3.022-6.7812-6.7812-6.7812h-14.746v-27.469h-22.353z" fill="url(#d)" stroke="#a0a0a0" stroke-width="1.5"/><path d="m-98.92857 413.61218a5.3571429 7.6785712 0 0 1 -5.35663 7.67857 5.3571429 7.6785712 0 0 1 -5.35766-7.67709 5.3571429 7.6785712 0 0 1 5.3556-7.68005 5.3571429 7.6785712 0 0 1 5.358689 7.67562l-5.357139.003z" fill="url(#e)" transform="translate(-6.7857 -4.2857)"/><path d="m-93.75 373.79001h20.893v27.679001h-20.893z" fill="url(#f)"/></g><g transform="translate(123.07 14.051)"><path d="m-100.58 427.46v8.7812h-10.013c-4.9464 0-8.9375 3.9911-8.9375 8.9375v35c0 4.9464 3.9911 8.9062 8.9375 8.9062h1.0625v6.0938h39.469v-6.0938h1.625c4.9464 0 8.9062-3.9598 8.9062-8.9062v-35c0-4.9464-3.9598-8.9375-8.9062-8.9375h-10.018v-8.7812z" fill="#ffde00" stroke="#ffa000" stroke-width="1.5"/><rect fill="url(#g)" height="51.606998" ry="9.0446" width="58.75" x="-119.14" y="436.76999"/><rect fill="url(#i)" height="51.964001" ry="8.0357" width="58.75" x="-119.05" y="436.67999"/><path id="x" d="m-108.78 488.56h38.035999v5.8929h-38.035999z" fill="url(#s)"/><use height="1052.3622" transform="matrix(.5446 0 0 1.4545 -40.788 -282.61)" width="744.09448" xlink:href="#x"/></g><g transform="translate(167.14 -38.571)"><path d="m-143.21 523.75c4.2932 6.8185 16.624 5.2968 21.297.46175-2.6908 1.0971-8.2152 2.4945-10.933 2.4974-6.1371.006-10.364-2.9591-10.364-2.9591z" stroke="#000" stroke-linejoin="bevel"/><path d="m29.642857 474.68362a3.5714285 4.4642859 0 0 1 -3.571086 4.46429 3.5714285 4.4642859 0 0 1 -3.571771-4.46343 3.5714285 4.4642859 0 0 1 3.5704-4.46514 3.5714285 4.4642859 0 0 1 3.572457 4.46257l-3.571429.002z" stroke="#000" stroke-linecap="round" stroke-linejoin="bevel" stroke-width="1.5" transform="matrix(.78639 0 0 .86911 -162.43 96.689)"/><path d="m52.678573 477.18362a.71428573 1.25 0 0 1 -.714218 1.25.71428573 1.25 0 0 1 -.714354-1.24976.71428573 1.25 0 0 1 .71408-1.25024.71428573 1.25 0 0 1 .714491 1.24952l-.714285.00048z" fill="#fff" transform="matrix(1.4419 0 0 1 -217.79 30.556)"/><path d="m29.642857 474.68362a3.5714285 4.4642859 0 0 1 -3.571086 4.46429 3.5714285 4.4642859 0 0 1 -3.571771-4.46343 3.5714285 4.4642859 0 0 1 3.5704-4.46514 3.5714285 4.4642859 0 0 1 3.572457 4.46257l-3.571429.002z" stroke="#000" stroke-linecap="round" stroke-linejoin="bevel" stroke-width="1.5" transform="matrix(.78639 0 0 .86911 -144.9266 96.333)"/><path d="m52.678573 477.18362a.71428573 1.25 0 0 1 -.714218 1.25.71428573 1.25 0 0 1 -.714354-1.24976.71428573 1.25 0 0 1 .71408-1.25024.71428573 1.25 0 0 1 .714491 1.24952l-.714285.00048z" fill="#fff" transform="matrix(1.4419 0 0 1 -200.288 30.1995)"/><path id="y" d="m-150.48 503.38c2.38-4.8364 9.2157-3.7571 11.806-.32753-1.4916-.77819-4.5542-1.7694-6.0609-1.7714-3.4022-.004-5.7455 2.0989-5.7455 2.0989z" fill="#ad3509"/><use height="1052.3622" transform="matrix(-1 0 0 1 -267.01 0)" width="744.09448" xlink:href="#y"/></g><use height="1052.3622" transform="matrix(-1 0 0 1 68.487 .50508)" width="744.09448" xlink:href="#w"/><g transform="translate(0 4.1991)"><g stroke="#000"><path d="m4.2188 451.69c-3.1123.10411-5.625 7.3666-5.625 16.375 0 8.3669 2.1665 15.194 4.9688 16.219v-29.5c0-1.104.29238-2.1187.65625-3.0938z" stroke-linecap="round" stroke-linejoin="bevel" stroke-width="1.2223"/><path d="m63.656 485c.10553.0168.20551.0937.3125.0937 3.1433 0 5.6875-7.3642 5.6875-16.438 0-9.0732-2.5442-16.406-5.6875-16.406-.25356 0-.50521.0947-.75.1875.19208.73276.4375 1.4553.4375 2.25v30.312z" stroke-linecap="round" stroke-linejoin="bevel" stroke-width="1.2223"/><ellipse cx="36.070999" cy="449.51001" rx="31.070999" ry="19.285999" transform="matrix(.98586 -.15883 .14557 .75428 -70.168 107.18)"/><ellipse cx="63.570999" cy="466.29001" rx="10" ry="22.5" stroke-linecap="round" stroke-linejoin="bevel" stroke-width="1.5" transform="matrix(.78328 -.068528 .068602 .78412 -19.986 92.298)"/><ellipse cx="11.429" cy="459.51001" rx="11.429" ry="18.570999" stroke-linecap="round" stroke-linejoin="bevel" stroke-width="1.5" transform="matrix(.61275 0 0 1 -3.153 -2.2618)"/></g><ellipse cx="26.070999" cy="451.29001" fill="url(#j)" rx="16.070999" ry="11.786" transform="matrix(1.0312 -.18183 .14388 .81599 -71.17 75.63)"/><ellipse cx="26.070999" cy="451.29001" fill="url(#k)" rx="16.070999" ry="11.786" transform="matrix(.3078 -.27876 .20436 .26288 -40.906 336.55)"/></g></g></g></svg>